<svg width="32" height="33" viewBox="0 0 32 33" fill="none" xmlns="http://www.w3.org/2000/svg">
<g clip-path="url(#clip0_273_909)">
<path d="M8.45867 4.81972L8.482 4.806L8.58933 4.74429C9.25626 4.37463 9.94859 4.0508 10.6613 3.77515C12.0567 3.238 13.9467 2.71229 16 2.71229C18.0533 2.71229 19.9433 3.238 21.341 3.77515C22.053 4.05079 22.7446 4.37462 23.4107 4.74429C23.4597 4.77172 23.4947 4.79 23.5157 4.806L23.539 4.81972H23.5413C23.8024 4.9753 24.1153 5.02436 24.4128 4.95637C24.7104 4.88837 24.9688 4.70874 25.1326 4.45608C25.2964 4.20342 25.3525 3.89789 25.2888 3.60516C25.2251 3.31242 25.0467 3.05585 24.792 2.89057H24.7897L24.785 2.886L24.7733 2.87915L24.7313 2.854C24.5131 2.72621 24.2913 2.60426 24.0663 2.48829C23.4586 2.17557 22.8339 1.89553 22.195 1.64943C20.6317 1.04372 18.4383 0.426575 16 0.426575C13.5593 0.426575 11.3683 1.04372 9.805 1.64943C8.98117 1.9673 8.1812 2.34156 7.411 2.76943C7.36328 2.79718 7.31584 2.82537 7.26867 2.854L7.22667 2.87686L7.215 2.886L7.21033 2.88829C6.94887 3.05045 6.76388 3.30771 6.69606 3.60349C6.62823 3.89926 6.68313 4.20931 6.84867 4.46543C7.01421 4.72156 7.27683 4.90277 7.57876 4.96921C7.8807 5.03565 8.19721 4.98188 8.45867 4.81972ZM6.66667 7.28372C5.42899 7.28372 4.242 7.76535 3.36683 8.62266C2.49167 9.47997 2 10.6427 2 11.8551V20.998C2 22.2104 2.49167 23.3732 3.36683 24.2305C4.242 25.0878 5.42899 25.5694 6.66667 25.5694H17.1667C18.4043 25.5694 19.5913 25.0878 20.4665 24.2305C21.3417 23.3732 21.8333 22.2104 21.8333 20.998V20.6826L28.2547 24.2757C28.4321 24.375 28.633 24.4269 28.8373 24.4262C29.0416 24.4255 29.2421 24.3723 29.4188 24.2719C29.5955 24.1714 29.7422 24.0273 29.8442 23.8539C29.9462 23.6805 29.9999 23.4839 30 23.2837V9.56943C29.9999 9.3693 29.9462 9.17269 29.8442 8.99927C29.7422 8.82586 29.5955 8.68172 29.4188 8.58129C29.2421 8.48085 29.0416 8.42763 28.8373 8.42695C28.633 8.42627 28.4321 8.47816 28.2547 8.57743L21.8333 12.1706V11.8551C21.8333 10.6427 21.3417 9.47997 20.4665 8.62266C19.5913 7.76535 18.4043 7.28372 17.1667 7.28372H6.66667ZM21.8333 14.8037L27.6667 11.5397V21.3134L21.8333 18.0494V14.8037ZM4.33333 11.8551C4.33333 11.2489 4.57917 10.6676 5.01675 10.2389C5.45434 9.81025 6.04783 9.56943 6.66667 9.56943H17.1667C17.7855 9.56943 18.379 9.81025 18.8166 10.2389C19.2542 10.6676 19.5 11.2489 19.5 11.8551V20.998C19.5 21.6042 19.2542 22.1856 18.8166 22.6142C18.379 23.0429 17.7855 23.2837 17.1667 23.2837H6.66667C6.04783 23.2837 5.45434 23.0429 5.01675 22.6142C4.57917 22.1856 4.33333 21.6042 4.33333 20.998V11.8551ZM8.461 28.0357L8.45867 28.0334C8.19765 27.8779 7.88474 27.8288 7.58718 27.8968C7.28963 27.9648 7.03118 28.1444 6.86738 28.3971C6.70358 28.6497 6.6475 28.9553 6.71119 29.248C6.77488 29.5407 6.95326 29.7973 7.208 29.9626H7.21033L7.215 29.9671L7.22667 29.974L7.26867 29.9991C7.30133 30.022 7.35033 30.0471 7.411 30.0837C7.53467 30.1523 7.70967 30.2506 7.93367 30.3671C8.37933 30.5957 9.01867 30.8997 9.805 31.2037C11.3683 31.8071 13.5617 32.4266 16 32.4266C18.4407 32.4266 20.6317 31.8094 22.195 31.2037C23.0188 30.8858 23.8188 30.5116 24.589 30.0837L24.7313 29.9991L24.7733 29.9763L24.785 29.9671L24.7897 29.9649H24.792C25.0535 29.8024 25.2383 29.5448 25.3059 29.2489C25.3735 28.9529 25.3183 28.6427 25.1525 28.3866C24.9867 28.1305 24.7237 27.9494 24.4216 27.8831C24.1194 27.8169 23.8028 27.871 23.5413 28.0334L23.518 28.0494L23.4107 28.1089C22.7438 28.4786 22.0514 28.8024 21.3387 29.078C19.9433 29.6151 18.0533 30.1409 16 30.1409C13.9467 30.1409 12.0567 29.6151 10.659 29.078C9.94708 28.8022 9.25554 28.4784 8.58933 28.1089C8.55415 28.0886 8.51914 28.068 8.48433 28.0471L8.461 28.0357Z" fill="#606060"/>
</g>
<defs>
<clipPath id="clip0_273_909">
<rect width="32" height="32" fill="white" transform="translate(0 0.426575)"/>
</clipPath>
</defs>
</svg>
