<svg width="192" height="44" viewBox="0 0 192 44" fill="none" xmlns="http://www.w3.org/2000/svg">
<rect x="22.516" y="3" width="14.0333" height="6.23704" rx="2.26717" fill="#1C1C1C"/>
<rect x="14.7934" y="10.7933" width="13.4613" height="6.23473" rx="2.26717" fill="#1C1C1C"/>
<rect x="30.947" y="10.7933" width="13.4613" height="6.23473" rx="2.26717" fill="#1C1C1C"/>
<rect x="7" y="34.1737" width="21.2547" height="6.23473" rx="2.26717" fill="#1C1C1C"/>
<rect x="30.947" y="34.1737" width="21.2547" height="6.23473" rx="2.26717" fill="#1C1C1C"/>
<rect x="38.1222" y="18.5868" width="11.2072" height="6.23704" rx="2.26717" fill="#1C1C1C"/>
<rect x="9.76312" y="18.5868" width="11.2072" height="6.23704" rx="2.26717" fill="#1C1C1C"/>
<rect x="7" y="26.3802" width="14.0333" height="6.23704" rx="2.26717" fill="#1C1C1C"/>
<rect x="38.1852" y="26.3802" width="14.0333" height="6.23704" rx="2.26717" fill="#1C1C1C"/>
<rect x="23.6496" y="19.5078" width="11.8318" height="11.8318" rx="2.26717" fill="#1C1C1C"/>
<path d="M30.026 27.7972V26.5219H33.4268V27.7972H30.026ZM28.1131 25.2466L25.5497 22.696H27.3521L29.4606 24.8003C29.7072 25.0511 29.7072 25.4592 29.4606 25.7015L27.3649 27.7972H25.5625L28.1131 25.2466Z" fill="white"/>
<path d="M63.9469 26.1975H68.7027V29H60.3163V14.0956H63.9469V26.1975ZM77.4832 29.1486C76.0819 29.1486 74.7939 28.8231 73.6191 28.172C72.4585 27.5209 71.5314 26.615 70.8378 25.4544C70.1584 24.2796 69.8187 22.9632 69.8187 21.5053C69.8187 20.0474 70.1584 18.7382 70.8378 17.5775C71.5314 16.4169 72.4585 15.511 73.6191 14.8599C74.7939 14.2088 76.0819 13.8833 77.4832 13.8833C78.8845 13.8833 80.1654 14.2088 81.3261 14.8599C82.5009 15.511 83.4209 16.4169 84.0862 17.5775C84.7656 18.7382 85.1053 20.0474 85.1053 21.5053C85.1053 22.9632 84.7656 24.2796 84.0862 25.4544C83.4068 26.615 82.4867 27.5209 81.3261 28.172C80.1654 28.8231 78.8845 29.1486 77.4832 29.1486ZM77.4832 25.8365C78.6722 25.8365 79.6205 25.4402 80.3282 24.6476C81.0501 23.8549 81.411 22.8075 81.411 21.5053C81.411 20.189 81.0501 19.1416 80.3282 18.3631C79.6205 17.5705 78.6722 17.1741 77.4832 17.1741C76.2801 17.1741 75.3176 17.5634 74.5958 18.3419C73.888 19.1203 73.5342 20.1748 73.5342 21.5053C73.5342 22.8217 73.888 23.8762 74.5958 24.6688C75.3176 25.4473 76.2801 25.8365 77.4832 25.8365ZM97.8469 14.0956V17.0043H93.8979V29H90.2673V17.0043H86.3183V14.0956H97.8469ZM103.3 17.0043V20.0191H108.162V22.8217H103.3V26.0913H108.798V29H99.669V14.0956H108.798V17.0043H103.3ZM124.489 29H120.858L114.786 19.8068V29H111.155V14.0956H114.786L120.858 23.3312V14.0956H124.489V29ZM137.014 18.809C136.745 18.3136 136.356 17.9385 135.847 17.6837C135.351 17.4148 134.764 17.2803 134.084 17.2803C132.91 17.2803 131.968 17.6695 131.261 18.448C130.553 19.2123 130.199 20.2385 130.199 21.5266C130.199 22.8995 130.567 23.9752 131.303 24.7537C132.053 25.5181 133.079 25.9002 134.382 25.9002C135.273 25.9002 136.023 25.6738 136.632 25.2208C137.255 24.7679 137.708 24.1168 137.991 23.2675H133.384V20.5924H141.282V23.9682C141.013 24.874 140.553 25.7162 139.902 26.4947C139.265 27.2732 138.451 27.903 137.46 28.3843C136.469 28.8655 135.351 29.1062 134.106 29.1062C132.634 29.1062 131.317 28.7877 130.157 28.1507C129.01 27.4997 128.111 26.6009 127.46 25.4544C126.823 24.3079 126.505 22.9986 126.505 21.5266C126.505 20.0545 126.823 18.7453 127.46 17.5988C128.111 16.4381 129.01 15.5393 130.157 14.9024C131.303 14.2513 132.612 13.9257 134.084 13.9257C135.868 13.9257 137.368 14.3574 138.585 15.2209C139.817 16.0843 140.631 17.2803 141.027 18.809H137.014ZM148.877 14.0956C150.448 14.0956 151.821 14.407 152.995 15.0298C154.17 15.6526 155.076 16.5301 155.713 17.6625C156.364 18.7806 156.69 20.0758 156.69 21.5478C156.69 23.0057 156.364 24.3008 155.713 25.4331C155.076 26.5655 154.163 27.443 152.974 28.0658C151.799 28.6886 150.434 29 148.877 29H143.293V14.0956H148.877ZM148.643 25.8578C150.016 25.8578 151.085 25.4827 151.849 24.7325C152.613 23.9823 152.995 22.9208 152.995 21.5478C152.995 20.1748 152.613 19.1062 151.849 18.3419C151.085 17.5775 150.016 17.1954 148.643 17.1954H146.923V25.8578H148.643ZM162.349 17.0043V20.0191H167.211V22.8217H162.349V26.0913H167.848V29H158.719V14.0956H167.848V17.0043H162.349ZM184.197 14.0956L178.91 29H174.366L169.08 14.0956H172.944L176.638 25.3482L180.354 14.0956H184.197Z" fill="#1C1C1C"/>
</svg>
